<svg width="80" height="80" viewBox="0 00 70 80" fill="none" xmlns="http://www.w3.org/2000/svg">
<g id="airplane-fill 1" clip-path="url(#clip0_59_64)">
<path id="Vector" d="M53.0599 18.7571C55.1388 18.0641 57.8513 17.8513 59.799 19.799C61.7467 21.7467 61.5314 24.4617 60.8409 26.5381C60.1232 28.6863 58.7323 30.7652 57.3241 32.1734L48.1894 41.3081L54.5869 60.5008C54.896 61.426 54.9411 62.4191 54.7173 63.3686C54.4935 64.318 54.0095 65.1864 53.3198 65.8762L49.8995 69.2965C49.7198 69.476 49.5031 69.6143 49.2646 69.7017C49.0261 69.789 48.7714 69.8234 48.5182 69.8025C48.2651 69.7815 48.0195 69.7057 47.7986 69.5803C47.5777 69.4549 47.3867 69.2829 47.239 69.0762L35.8818 53.1751L29.3778 57.8229L29.3778 64.3467C29.3783 64.6933 29.2758 65.0322 29.0834 65.3204C28.891 65.6087 28.6173 65.8334 28.2971 65.9659C27.9769 66.0984 27.6245 66.1329 27.2847 66.065C26.9448 65.997 26.6328 65.8297 26.3882 65.5842L14.0138 53.2098C13.7683 52.9652 13.601 52.6531 13.533 52.3133C13.4651 51.9735 13.4995 51.6211 13.6321 51.3009C13.7646 50.9806 13.9893 50.707 14.2775 50.5146C14.5658 50.3222 14.9047 50.2197 15.2513 50.2201L21.7775 50.2226L26.4228 43.7162L10.5218 32.359C10.3151 32.2112 10.1431 32.0203 10.0177 31.7994C9.89227 31.5785 9.81645 31.3329 9.79549 31.0797C9.77453 30.8266 9.80894 30.5719 9.89632 30.3334C9.98371 30.0948 10.122 29.8782 10.3015 29.6985L13.7218 26.2782C14.4116 25.5884 15.2799 25.1045 16.2294 24.8807C17.1789 24.6569 18.172 24.702 19.0972 25.0111L38.2899 31.4086L47.4246 22.2739C48.8303 20.8681 50.9167 19.4748 53.0599 18.7571Z" fill="black"/>
</g>
<defs>
<clipPath id="clip0_59_64">
<rect width="56" height="56" fill="white" transform="translate(40) rotate(45)"/>
</clipPath>
</defs>
</svg>
