<svg width="56" height="56" viewBox="0 0 56 56" fill="none" xmlns="http://www.w3.org/2000/svg">
<g id="bookmark-check-fill 1" clip-path="url(#clip0_60_70)">
<path id="Vector" fill-rule="evenodd" clip-rule="evenodd" d="M7 54.25V7C7 5.14348 7.7375 3.36301 9.05025 2.05025C10.363 0.737498 12.1435 0 14 0L42 0C43.8565 0 45.637 0.737498 46.9497 2.05025C48.2625 3.36301 49 5.14348 49 7V54.25C49.0002 54.5539 48.9213 54.8526 48.771 55.1167C48.6207 55.3809 48.4042 55.6013 48.1429 55.7564C47.8815 55.9114 47.5843 55.9957 47.2804 56.001C46.9766 56.0063 46.6766 55.9324 46.41 55.7865L28 45.7415L9.59 55.7865C9.3234 55.9324 9.02342 56.0063 8.71957 56.001C8.41572 55.9957 8.11848 55.9114 7.85712 55.7564C7.59576 55.6013 7.37928 55.3809 7.22899 55.1167C7.0787 54.8526 6.99978 54.5539 7 54.25ZM37.989 20.489C38.3176 20.1604 38.5022 19.7147 38.5022 19.25C38.5022 18.7853 38.3176 18.3396 37.989 18.011C37.6604 17.6824 37.2147 17.4978 36.75 17.4978C36.2853 17.4978 35.8396 17.6824 35.511 18.011L26.25 27.2755L22.239 23.261C22.0763 23.0983 21.8831 22.9692 21.6705 22.8812C21.458 22.7931 21.2301 22.7478 21 22.7478C20.7699 22.7478 20.542 22.7931 20.3295 22.8812C20.1169 22.9692 19.9237 23.0983 19.761 23.261C19.5983 23.4237 19.4692 23.6169 19.3812 23.8295C19.2931 24.042 19.2478 24.2699 19.2478 24.5C19.2478 24.7301 19.2931 24.958 19.3812 25.1705C19.4692 25.3831 19.5983 25.5763 19.761 25.739L25.011 30.989C25.1736 31.152 25.3667 31.2813 25.5793 31.3695C25.7919 31.4577 26.0198 31.5031 26.25 31.5031C26.4802 31.5031 26.7081 31.4577 26.9207 31.3695C27.1333 31.2813 27.3264 31.152 27.489 30.989L37.989 20.489Z" fill="black"/>
</g>
<defs>
<clipPath id="clip0_60_70">
<rect width="56" height="56" fill="white"/>
</clipPath>
</defs>
</svg>
