<svg width="56" height="56" viewBox="0 0 56 56" fill="none" xmlns="http://www.w3.org/2000/svg">
<g id="calendar-check-fill 1" clip-path="url(#clip0_60_74)">
<path id="Vector" d="M14 1.75C14 1.28587 13.8156 0.840752 13.4874 0.512563C13.1592 0.184374 12.7141 0 12.25 0C11.7859 0 11.3408 0.184374 11.0126 0.512563C10.6844 0.840752 10.5 1.28587 10.5 1.75V3.5H7C5.14348 3.5 3.36301 4.2375 2.05025 5.55025C0.737498 6.86301 0 8.64348 0 10.5L0 14H56V10.5C56 8.64348 55.2625 6.86301 53.9497 5.55025C52.637 4.2375 50.8565 3.5 49 3.5H45.5V1.75C45.5 1.28587 45.3156 0.840752 44.9874 0.512563C44.6592 0.184374 44.2141 0 43.75 0C43.2859 0 42.8408 0.184374 42.5126 0.512563C42.1844 0.840752 42 1.28587 42 1.75V3.5H14V1.75ZM56 49V17.5H0V49C0 50.8565 0.737498 52.637 2.05025 53.9497C3.36301 55.2625 5.14348 56 7 56H49C50.8565 56 52.637 55.2625 53.9497 53.9497C55.2625 52.637 56 50.8565 56 49ZM37.989 30.989L27.489 41.489C27.3264 41.652 27.1333 41.7813 26.9207 41.8695C26.7081 41.9577 26.4802 42.0031 26.25 42.0031C26.0198 42.0031 25.7919 41.9577 25.5793 41.8695C25.3667 41.7813 25.1736 41.652 25.011 41.489L19.761 36.239C19.4324 35.9104 19.2478 35.4647 19.2478 35C19.2478 34.5353 19.4324 34.0896 19.761 33.761C20.0896 33.4324 20.5353 33.2478 21 33.2478C21.4647 33.2478 21.9104 33.4324 22.239 33.761L26.25 37.7755L35.511 28.511C35.8396 28.1824 36.2853 27.9978 36.75 27.9978C37.2147 27.9978 37.6604 28.1824 37.989 28.511C38.3176 28.8396 38.5022 29.2853 38.5022 29.75C38.5022 30.2147 38.3176 30.6604 37.989 30.989Z" fill="black"/>
</g>
<defs>
<clipPath id="clip0_60_74">
<rect width="56" height="56" fill="white"/>
</clipPath>
</defs>
</svg>
