<svg width="56" height="56" viewBox="0 0 56 56" fill="none" xmlns="http://www.w3.org/2000/svg">
<g id="clock-fill 1" clip-path="url(#clip0_60_72)">
<path id="Vector" d="M56 28C56 35.4261 53.05 42.548 47.799 47.799C42.548 53.05 35.4261 56 28 56C20.5739 56 13.452 53.05 8.20101 47.799C2.94999 42.548 0 35.4261 0 28C0 20.5739 2.94999 13.452 8.20101 8.20101C13.452 2.94999 20.5739 0 28 0C35.4261 0 42.548 2.94999 47.799 8.20101C53.05 13.452 56 20.5739 56 28ZM28 12.25C28 11.7859 27.8156 11.3408 27.4874 11.0126C27.1592 10.6844 26.7141 10.5 26.25 10.5C25.7859 10.5 25.3408 10.6844 25.0126 11.0126C24.6844 11.3408 24.5 11.7859 24.5 12.25V31.5C24.5001 31.8085 24.5817 32.1114 24.7366 32.3782C24.8915 32.6449 25.1142 32.866 25.382 33.019L37.632 40.019C38.034 40.2363 38.505 40.2877 38.9444 40.1622C39.3839 40.0368 39.7568 39.7444 39.9835 39.3477C40.2102 38.9509 40.2727 38.4813 40.1577 38.039C40.0427 37.5968 39.7593 37.217 39.368 36.981L28 30.485V12.25Z" fill="black"/>
</g>
<defs>
<clipPath id="clip0_60_72">
<rect width="56" height="56" fill="white"/>
</clipPath>
</defs>
</svg>
