<svg width="56" height="56" viewBox="0 0 56 56" fill="none" xmlns="http://www.w3.org/2000/svg">
<g id="credit-card-fill 1">
<path id="Vector" d="M0 14C0 12.1435 0.737498 10.363 2.05025 9.05025C3.36301 7.7375 5.14348 7 7 7H49C50.8565 7 52.637 7.7375 53.9497 9.05025C55.2625 10.363 56 12.1435 56 14V17.5H0V14ZM0 24.5V42C0 43.8565 0.737498 45.637 2.05025 46.9497C3.36301 48.2625 5.14348 49 7 49H49C50.8565 49 52.637 48.2625 53.9497 46.9497C55.2625 45.637 56 43.8565 56 42V24.5H0ZM10.5 31.5H14C14.9283 31.5 15.8185 31.8687 16.4749 32.5251C17.1313 33.1815 17.5 34.0717 17.5 35V38.5C17.5 39.4283 17.1313 40.3185 16.4749 40.9749C15.8185 41.6312 14.9283 42 14 42H10.5C9.57174 42 8.6815 41.6312 8.02513 40.9749C7.36875 40.3185 7 39.4283 7 38.5V35C7 34.0717 7.36875 33.1815 8.02513 32.5251C8.6815 31.8687 9.57174 31.5 10.5 31.5Z" fill="black"/>
</g>
</svg>
