<svg width="368" height="151" viewBox="0 0 368 151" fill="none" xmlns="http://www.w3.org/2000/svg">
<path d="M14.1551 38.1359C11.2965 38.1359 8.64461 37.7677 6.19932 37.0312C3.75403 36.2598 1.68759 35.2253 0 33.9278L2.01478 28.6151C3.70237 29.8424 5.54495 30.7892 7.54251 31.4555C9.57451 32.1218 11.7787 32.4549 14.1551 32.4549C16.8759 32.4549 18.8563 31.9991 20.0961 31.0873C21.336 30.1405 21.9559 28.9307 21.9559 27.4578C21.9559 26.2305 21.5082 25.2661 20.6127 24.5648C19.7517 23.8634 18.2536 23.2848 16.1182 22.8289L10.4355 21.6191C3.96068 20.2164 0.723254 16.8324 0.723254 11.4671C0.723254 9.15261 1.32597 7.13623 2.53139 5.41792C3.73681 3.69962 5.40719 2.36706 7.54251 1.42023C9.67783 0.473411 12.1403 0 14.93 0C17.4098 0 19.7345 0.385742 21.9043 1.15723C24.074 1.89364 25.8822 2.94567 27.3287 4.3133L25.3139 9.36302C22.4553 6.90829 18.9768 5.68093 14.8784 5.68093C12.502 5.68093 10.6422 6.18941 9.29898 7.20637C7.9558 8.22332 7.2842 9.55589 7.2842 11.2041C7.2842 12.4665 7.69749 13.4834 8.52407 14.2549C9.35064 14.9913 10.7627 15.57 12.7603 15.9908L18.3913 17.2006C21.801 17.937 24.3323 19.0942 25.9855 20.6723C27.6731 22.2503 28.5169 24.3544 28.5169 26.9844C28.5169 29.1937 27.9314 31.1399 26.7604 32.8232C25.5894 34.5064 23.9191 35.8214 21.7493 36.7682C19.614 37.68 17.0826 38.1359 14.1551 38.1359Z" fill="url(#paint0_linear_90_64)"/>
<path d="M49.329 38.1359C44.3351 38.1359 40.5122 36.8208 37.8603 34.1908C35.2428 31.5257 33.934 27.5981 33.934 22.4081V0.526012H40.5466V22.3555C40.5466 25.6869 41.2871 28.1942 42.7681 29.8775C44.2834 31.5257 46.4704 32.3497 49.329 32.3497C55.1495 32.3497 58.0597 29.0183 58.0597 22.3555V0.526012H64.6207V22.4081C64.6207 27.5981 63.3291 31.5257 60.7461 34.1908C58.163 36.8208 54.3573 38.1359 49.329 38.1359Z" fill="url(#paint1_linear_90_64)"/>
<path d="M68.1542 37.6099L84.6341 0.526012H90.0585L106.538 37.6099H99.8224L96.2061 29.0359H78.4347L74.8701 37.6099H68.1542ZM87.2688 7.83758L80.7078 23.6705H93.933L87.3721 7.83758H87.2688Z" fill="url(#paint2_linear_90_64)"/>
<path d="M195.038 38.1359V0H202.125V32.2397H220.841V38.1359H195.038Z" fill="url(#paint3_linear_90_64)"/>
<path d="M226.13 38.1359V0H252.099V5.51753H232.941V16.0117H250.881V21.5292H232.941V32.6183H252.099V38.1359H226.13Z" fill="url(#paint4_linear_90_64)"/>
<path d="M268.312 38.1359V5.788H254.912V0H288.799V5.788H275.399V38.1359H268.312Z" fill="url(#paint5_linear_90_64)"/>
<path d="M293.289 38.1359V0H310.233C314.515 0 317.819 1.00974 320.144 3.02923C322.47 5.01266 323.633 7.80749 323.633 11.4137C323.633 14.2626 322.876 16.6247 321.362 18.5C319.849 20.3391 317.671 21.5833 314.829 22.2324C316.711 22.8094 318.262 24.1978 319.48 26.3976L326.013 38.1359H318.206L311.451 25.9649C310.786 24.7748 309.993 23.9634 309.07 23.5306C308.184 23.0979 307.04 22.8815 305.637 22.8815H300.377V38.1359H293.289ZM300.377 17.7427H309.015C314.183 17.7427 316.767 15.6871 316.767 11.576C316.767 7.50096 314.183 5.46344 309.015 5.46344H300.377V17.7427Z" fill="url(#paint6_linear_90_64)"/>
<path d="M326.337 38.1359L344.001 0H349.815L367.478 38.1359H360.28L356.404 29.3186H337.356L333.536 38.1359H326.337ZM346.825 7.51899L339.793 23.8011H353.968L346.936 7.51899H346.825Z" fill="url(#paint7_linear_90_64)"/>
<path d="M0 148.68V53.6486H12.9559L64.1049 119.968V53.6486H80.1649V148.68H67.3439L16.06 82.0906V148.68H0Z" fill="url(#paint8_linear_90_64)"/>
<path d="M100.955 148.68V53.6486H164.25V67.3978H117.555V93.5483H161.281V107.297H117.555V134.931H164.25V148.68H100.955Z" fill="url(#paint9_linear_90_64)"/>
<path d="M223.996 150.028C214.819 150.028 206.767 148.006 199.839 143.962C193.001 139.918 187.693 134.257 183.914 126.978C180.135 119.609 178.245 110.982 178.245 101.097C178.245 91.1219 180.135 82.495 183.914 75.216C187.693 67.937 193.001 62.3205 199.839 58.3665C206.677 54.3226 214.729 52.3006 223.996 52.3006C233.263 52.3006 241.316 54.3226 248.154 58.3665C254.991 62.3205 260.3 67.937 264.079 75.216C267.857 82.495 269.747 91.077 269.747 100.962C269.747 110.937 267.857 119.609 264.079 126.978C260.3 134.257 254.991 139.918 248.154 143.962C241.316 148.006 233.263 150.028 223.996 150.028ZM223.996 135.2C232.723 135.2 239.516 132.19 244.375 126.169C249.233 120.148 251.662 111.791 251.662 101.097C251.662 90.3132 249.233 81.9558 244.375 76.0248C239.606 70.0937 232.813 67.1282 223.996 67.1282C215.269 67.1282 208.476 70.0937 203.618 76.0248C198.759 81.9558 196.33 90.3132 196.33 101.097C196.33 111.791 198.759 120.148 203.618 126.169C208.476 132.19 215.269 135.2 223.996 135.2Z" fill="url(#paint10_linear_90_64)"/>
<path d="M287.312 148.68V53.6486H300.268L351.417 119.968V53.6486H367.477V148.68H354.656L303.372 82.0906V148.68H287.312Z" fill="url(#paint11_linear_90_64)"/>
<path d="M133.771 5.78836e-06H139.503V0.663862H139.173V0.99579H138.843V1.32772H138.513V1.65965H138.135V1.99157H137.853V2.3235H137.523V2.70285H137.145V3.3667H136.815V4.07798H136.438V4.74183H136.108V5.78504H135.731V9.86301H136.108V10.8588H136.438V11.5701H136.768V12.2339H137.098V12.8978H137.428V13.2297H137.805V13.5616H138.135V14.2729H138.465V14.6048H138.795V14.9368H139.125V15.2687H139.503V15.648H139.833V15.98H140.163V16.3119H140.493V16.6438H140.823V16.9757H141.153V17.3077H141.483V17.687H141.86V18.0189H142.19V18.3509H142.52V18.6828H142.85V19.0147H143.227V19.3941H143.557V19.726H143.887V20.0579H144.217V20.3899H144.547V20.7218H144.877V21.1011H145.584V21.4331H145.914V21.765H146.244V22.0969H146.574V22.4289H146.904V22.7608H147.281V23.0927H147.611V23.4721H147.941V23.804H148.271V24.1359H148.601V24.4678H148.931V24.7998H149.308V25.1317H149.638V25.511H149.968V25.843H150.298V26.1275H150.628V26.5068H150.958V26.8387H151.335V27.55H151.665V27.882H151.995V28.2139H152.372V28.8777H152.702V29.589H153.032V30.5848H152.702V31.2961H152.372V31.628H152.042V31.9599H151.382V32.3393H149.685V32.0073H148.648V31.6754H148.318V31.2961H147.988V30.9641H147.658V30.6322H146.951V30.3003H146.621V29.9684H146.291V29.589H145.961V29.2571H145.631V28.9252H145.254V28.5932H144.594V28.2139H144.264V27.882H143.934V27.55H143.557V27.2181H143.227V26.8862H142.897V26.5542H142.567V26.1749H142.237V25.8904H141.53V25.511H141.2V25.1791H140.87V24.8472H140.54V24.5153H140.21V24.1833H139.88V23.8514H139.503V23.4721H139.173V23.1401H138.843V22.8082H138.513V22.4763H137.853V22.1443H137.475V21.765H137.145V21.4331H136.815V21.1011H136.485V20.7692H136.155V20.4373H135.826V20.1054H135.448V19.726H135.118V19.3941H134.788V19.0622H134.458V18.7302H133.798V18.3983H133.421V18.0664H133.091V17.687H132.761V17.3551H132.431V17.0232H132.101V16.6912H131.724V16.3119H131.394V15.98H131.064V15.648H130.734V15.3161H130.027V14.9842H129.697V14.6523H128.707V14.2729H127.34V14.6048H126.303V14.9368H125.973V15.3161H125.643V15.648H125.313V15.98H124.953V16.3257H124.618V17.339H124.229V18.7302H124.606V19.726H124.936V20.0579H125.266V20.3899H125.596V20.7218H125.973V21.1011H126.303V21.4331H126.633V21.765H126.963V22.0969H127.293V22.4289H127.623V22.7608H127.953V23.0927H128.33V23.4721H128.66V23.804H129.32V24.1359H129.65V24.4678H130.027V24.8472H130.357V25.1791H130.687V25.511H131.017V25.843H131.394V26.1749H131.724V26.5068H132.054V26.8862H132.384V27.2181H132.714V27.55H133.421V27.882H133.751V28.2139H134.081V28.5932H134.411V28.9252H134.741V29.2571H135.071V29.589H135.448V29.9209H135.778V30.2529H136.108V30.5848H136.768V30.9167H137.098V31.2961H137.428V31.628H137.805V31.9599H138.135V32.2919H138.465V32.6238H138.795V32.9557H139.125V33.2876H139.833V33.667H140.163V33.9989H140.493V34.3308H140.823V34.6628H141.153V34.9947H141.53V35.374H141.86V35.706H142.52V36.0379H142.85V36.3698H143.18V36.7018H143.557V37.0811H143.869V37.3977H144.587V38.1359H134.449V37.7924H131.724V37.4604L130.381 37.4478V37.0811H129.037V36.7492H128.377V36.4172H127.34V36.0853H126.68V35.7534H126.35V35.4215H125.643V35.0421H124.983V34.7102H124.653V34.3783H123.946V34.0463H123.616V33.7144H123.286V33.3825H122.956V33.0031H122.626V32.6712H122.249V32.3393H121.919V32.0073H121.589V31.6754H121.259V31.3435H120.881V30.9641H120.599V30.6322H120.221V29.9684H119.891V29.6364H119.561V28.9252H119.231V28.5932H118.901V27.9294H118.524V27.2181H118.194V26.2223H117.864V25.511H117.534V24.5153H117.157V23.1401H116.827L116.843 20.7403H116.497V17.3551H116.827V14.9842H117.157V13.6091H117.487V12.6133H117.817V11.5701H118.147V10.8588H118.524V10.1949H118.854V9.53108H119.184V9.19915H119.514V8.5353H119.844V8.20337H120.174V7.49209H120.551V7.16017H120.834V6.82824H121.259V6.49631H121.589V6.11696H121.871V5.78504H122.249V5.45311H122.579V5.12118H122.909V4.74183H123.239V4.40991H123.616V4.07798H123.946V3.74605H124.606V3.3667H124.936V3.03478H125.643V2.70285H125.973V2.37092H126.633V2.03899H127.34V1.70706H128V1.37514H128.99V0.99579H130.027V0.663862H131.394V0.310869H133.771V5.78836e-06Z" fill="url(#paint12_linear_90_64)"/>
<path d="M161.875 38.1359H156.144V37.472H156.474V37.1401H156.804V36.8082H157.134V36.4762H157.511V36.1443H157.794V35.8124H158.124V35.433H158.501V34.7692H158.831V34.0579H159.208V33.394H159.538V32.3508H159.915V28.2729H159.538V27.2771H159.208V26.5658H158.878V25.902H158.548V25.2381H158.218V24.9062H157.841V24.5742H157.511V23.863H157.181V23.531H156.851V23.1991H156.521V22.8672H156.144V22.4878H155.814V22.1559H155.484V21.824H155.154V21.4921H154.824V21.1601H154.494V20.8282H154.164V20.4489H153.787V20.1169H153.457V19.785H153.127V19.4531H152.797V19.1211H152.42V18.7418H152.09V18.4099H151.76V18.0779H151.43V17.746H151.1V17.4141H150.77V17.0347H150.062V16.7028H149.732V16.3709H149.402V16.039H149.072V15.707H148.742V15.3751H148.365V15.0432H148.035V14.6638H147.705V14.3319H147.375V14H147.045V13.668H146.715V13.3361H146.338V13.0042H146.008V12.6248H145.678V12.2929H145.348V12.0084H145.018V11.6291H144.688V11.2971H144.311V10.5859H143.981V10.2539H143.651V9.922H143.274V9.25815H142.944V8.54687H142.614V7.55109H142.944V6.83981H143.274V6.50789H143.604V6.17596H144.264V5.79661H145.961V6.12854H146.998V6.46047H147.328V6.83981H147.658V7.17174H147.988V7.50367H148.695V7.8356H149.025V8.16753H149.355V8.54687H149.685V8.8788H150.015V9.21073H150.392V9.54266H151.052V9.922H151.382V10.2539H151.712V10.5859H152.09V10.9178H152.42V11.2497H152.749V11.5816H153.079V11.961H153.409V12.2455H154.117V12.6248H154.447V12.9568H154.777V13.2887H155.107V13.6206H155.437V13.9526H155.767V14.2845H156.144V14.6638H156.474V14.9958H156.804V15.3277H157.134V15.6596H157.794V15.9915H158.171V16.3709H158.501V16.7028H158.831V17.0347H159.161V17.3667H159.491V17.6986H159.821V18.0305H160.198V18.4099H160.528V18.7418H160.858V19.0737H161.188V19.4057H161.848V19.7376H162.225V20.0695H162.555V20.4489H162.885V20.7808H163.215V21.1127H163.545V21.4446H163.922V21.824H164.252V22.1559H164.582V22.4878H164.912V22.8198H165.619V23.1517H165.949V23.4836H166.939V23.863H168.306V23.531H169.344V23.1991H169.673V22.8198H170.003V22.4878H170.333V22.1559H170.693V21.8101H171.028V20.7968H171.418V19.4057H171.041V18.4099H170.711V18.0779H170.381V17.746H170.051V17.4141H169.673V17.0347H169.344V16.7028H169.014V16.3709H168.684V16.039H168.354V15.707H168.024V15.3751H167.694V15.0432H167.316V14.6638H166.986V14.3319H166.326V14H165.996V13.668H165.619V13.2887H165.289V12.9568H164.959V12.6248H164.629V12.2929H164.252V11.961H163.922V11.6291H163.592V11.2497H163.262V10.9178H162.932V10.5859H162.225V10.2539H161.895V9.922H161.565V9.54266H161.235V9.21073H160.905V8.8788H160.575V8.54687H160.198V8.21494H159.868V7.88302H159.538V7.55109H158.878V7.21916H158.548V6.83981H158.218V6.50789H157.841V6.17596H157.511V5.84403H157.181V5.5121H156.851V5.18017H156.521V4.84825H155.814V4.4689H155.484V4.13697H155.154V3.80504H154.824V3.47312H154.494V3.14119H154.117V2.76184H153.787V2.42991H153.127V2.09799H152.797V1.76606H152.467V1.43413H152.09V1.05478H151.777V0.738216H151.06V0H161.198V0.34351H163.922V0.675438L165.265 0.688057V1.05478H166.609V1.38671H167.269V1.71864H168.306V2.05057H168.966V2.3825H169.296V2.71442H170.003V3.09377H170.663V3.4257H170.993V3.75763H171.701V4.08955H172.031V4.42148H172.361V4.75341H172.691V5.13276H173.021V5.46468H173.398V5.79661H173.728V6.12854H174.058V6.46047H174.388V6.7924H174.765V7.17174H175.048V7.50367H175.425V8.16753H175.755V8.49945H176.085V9.21073H176.415V9.54266H176.745V10.2065H177.122V10.9178H177.452V11.9136H177.782V12.6248H178.112V13.6206H178.489V14.9958H178.819L178.803 17.3956H179.149V20.7808H178.819V23.1517H178.489V24.5268H178.159V25.5226H177.829V26.5658H177.499V27.2771H177.122V27.9409H176.792V28.6048H176.462V28.9367H176.132V29.6006H175.802V29.9325H175.472V30.6438H175.095V30.9757H174.812V31.3076H174.388V31.6396H174.058V32.0189H173.775V32.3508H173.398V32.6828H173.068V33.0147H172.738V33.394H172.408V33.726H172.031V34.0579H171.701V34.3898H171.041V34.7692H170.711V35.1011H170.003V35.433H169.673V35.765H169.014V36.0969H168.306V36.4288H167.646V36.7607H166.656V37.1401H165.619V37.472H164.252V37.825H161.875V38.1359Z" fill="url(#paint13_linear_90_64)"/>
<defs>
<linearGradient id="paint0_linear_90_64" x1="44" y1="6.99996" x2="323.5" y2="179.5" gradientUnits="userSpaceOnUse">
<stop stop-color="#0085FF"/>
<stop offset="1" stop-color="#FA00FF"/>
</linearGradient>
<linearGradient id="paint1_linear_90_64" x1="44" y1="6.99996" x2="323.5" y2="179.5" gradientUnits="userSpaceOnUse">
<stop stop-color="#0085FF"/>
<stop offset="1" stop-color="#FA00FF"/>
</linearGradient>
<linearGradient id="paint2_linear_90_64" x1="44" y1="6.99996" x2="323.5" y2="179.5" gradientUnits="userSpaceOnUse">
<stop stop-color="#0085FF"/>
<stop offset="1" stop-color="#FA00FF"/>
</linearGradient>
<linearGradient id="paint3_linear_90_64" x1="44" y1="6.99996" x2="323.5" y2="179.5" gradientUnits="userSpaceOnUse">
<stop stop-color="#0085FF"/>
<stop offset="1" stop-color="#FA00FF"/>
</linearGradient>
<linearGradient id="paint4_linear_90_64" x1="44" y1="6.99996" x2="323.5" y2="179.5" gradientUnits="userSpaceOnUse">
<stop stop-color="#0085FF"/>
<stop offset="1" stop-color="#FA00FF"/>
</linearGradient>
<linearGradient id="paint5_linear_90_64" x1="44" y1="6.99996" x2="323.5" y2="179.5" gradientUnits="userSpaceOnUse">
<stop stop-color="#0085FF"/>
<stop offset="1" stop-color="#FA00FF"/>
</linearGradient>
<linearGradient id="paint6_linear_90_64" x1="44" y1="6.99996" x2="323.5" y2="179.5" gradientUnits="userSpaceOnUse">
<stop stop-color="#0085FF"/>
<stop offset="1" stop-color="#FA00FF"/>
</linearGradient>
<linearGradient id="paint7_linear_90_64" x1="44" y1="6.99996" x2="323.5" y2="179.5" gradientUnits="userSpaceOnUse">
<stop stop-color="#0085FF"/>
<stop offset="1" stop-color="#FA00FF"/>
</linearGradient>
<linearGradient id="paint8_linear_90_64" x1="44" y1="6.99996" x2="323.5" y2="179.5" gradientUnits="userSpaceOnUse">
<stop stop-color="#0085FF"/>
<stop offset="1" stop-color="#FA00FF"/>
</linearGradient>
<linearGradient id="paint9_linear_90_64" x1="44" y1="6.99996" x2="323.5" y2="179.5" gradientUnits="userSpaceOnUse">
<stop stop-color="#0085FF"/>
<stop offset="1" stop-color="#FA00FF"/>
</linearGradient>
<linearGradient id="paint10_linear_90_64" x1="44" y1="6.99996" x2="323.5" y2="179.5" gradientUnits="userSpaceOnUse">
<stop stop-color="#0085FF"/>
<stop offset="1" stop-color="#FA00FF"/>
</linearGradient>
<linearGradient id="paint11_linear_90_64" x1="44" y1="6.99996" x2="323.5" y2="179.5" gradientUnits="userSpaceOnUse">
<stop stop-color="#0085FF"/>
<stop offset="1" stop-color="#FA00FF"/>
</linearGradient>
<linearGradient id="paint12_linear_90_64" x1="44" y1="6.99996" x2="323.5" y2="179.5" gradientUnits="userSpaceOnUse">
<stop stop-color="#0085FF"/>
<stop offset="1" stop-color="#FA00FF"/>
</linearGradient>
<linearGradient id="paint13_linear_90_64" x1="44" y1="6.99996" x2="323.5" y2="179.5" gradientUnits="userSpaceOnUse">
<stop stop-color="#0085FF"/>
<stop offset="1" stop-color="#FA00FF"/>
</linearGradient>
</defs>
</svg>


