<svg width="56" height="56" viewBox="0 0 56 56" fill="none" xmlns="http://www.w3.org/2000/svg">
<g id="pen-fill 1">
<path id="Vector" d="M47.243 2.78252L47.7645 2.26102C48.1571 1.86873 48.623 1.55759 49.1358 1.34537C49.6485 1.13315 50.1981 1.02401 50.753 1.02417C51.308 1.02433 51.8574 1.1338 52.3701 1.34632C52.8827 1.55884 53.3485 1.87025 53.7408 2.26277C54.1331 2.65529 54.4442 3.12123 54.6564 3.634C54.8686 4.14676 54.9778 4.69631 54.9776 5.25125C54.9775 5.8062 54.868 6.35568 54.6555 6.86832C54.443 7.38096 54.1315 7.84673 53.739 8.23902L53.2175 8.75702C54.1096 9.75753 54.5852 11.0614 54.5468 12.4013C54.5084 13.7412 53.959 15.0157 53.011 15.9635L16.989 51.989C16.7638 52.213 16.4819 52.3715 16.1735 52.4475L2.17353 55.9475C1.88055 56.0205 1.57368 56.0164 1.28275 55.9357C0.991822 55.8549 0.726727 55.7003 0.513235 55.4868C0.299743 55.2733 0.145117 55.0082 0.064388 54.7173C-0.016341 54.4264 -0.0204269 54.1195 0.0525275 53.8265L3.55253 39.8265C3.62911 39.5194 3.78757 39.2387 4.01103 39.0145L37.758 5.26752C37.4205 5.02997 37.0099 4.91936 36.5987 4.95522C36.1876 4.99109 35.8023 5.17112 35.511 5.46352L23.989 16.989C23.8263 17.1517 23.6332 17.2808 23.4206 17.3689C23.208 17.4569 22.9801 17.5022 22.75 17.5022C22.5199 17.5022 22.2921 17.4569 22.0795 17.3689C21.8669 17.2808 21.6737 17.1517 21.511 16.989C21.3483 16.8263 21.2193 16.6331 21.1312 16.4206C21.0431 16.208 20.9978 15.9801 20.9978 15.75C20.9978 15.5199 21.0431 15.2921 21.1312 15.0795C21.2193 14.8669 21.3483 14.6737 21.511 14.511L33.04 2.98902C33.9884 2.04057 35.2639 1.49109 36.6046 1.45334C37.9454 1.41559 39.2498 1.89244 40.25 2.78602C41.2117 1.92655 42.4561 1.45116 43.7459 1.45051C45.0356 1.44987 46.2805 1.92402 47.243 2.78252Z" fill="black"/>
</g>
</svg>
